<svg id="visual" viewBox="0 0 900 600" width="900" height="600" xmlns="http://www.w3.org/2000/svg" xmlns:xlink="http://www.w3.org/1999/xlink" version="1.1"><rect x="0" y="0" width="900" height="600" fill="#001220"></rect><defs><linearGradient id="grad1_0" x1="33.3%" y1="0%" x2="100%" y2="100%"><stop offset="20%" stop-color="#001220" stop-opacity="1"></stop><stop offset="80%" stop-color="#001220" stop-opacity="1"></stop></linearGradient></defs><defs><linearGradient id="grad2_0" x1="0%" y1="0%" x2="66.7%" y2="100%"><stop offset="20%" stop-color="#001220" stop-opacity="1"></stop><stop offset="80%" stop-color="#001220" stop-opacity="1"></stop></linearGradient></defs><g transform="translate(900, 0)"><path d="M0 486.7C-56.4 464.2 -112.8 441.6 -174.9 422.2C-237 402.8 -304.7 386.6 -344.2 344.2C-383.7 301.8 -394.8 233.2 -413.9 171.4C-432.9 109.7 -459.8 54.9 -486.7 0L0 0Z" fill="#6600FF"></path></g><g transform="translate(0, 600)"><path d="M0 -486.7C52.5 -441.6 105 -396.4 151.2 -364.9C197.3 -333.5 237 -315.7 291.3 -291.3C345.7 -266.9 414.7 -235.9 449.7 -186.3C484.7 -136.6 485.7 -68.3 486.7 0L0 0Z" fill="#6600FF"></path></g></svg>