<svg id="visual" viewBox="0 0 900 600" width="900" height="600" xmlns="http://www.w3.org/2000/svg" xmlns:xlink="http://www.w3.org/1999/xlink" version="1.1"><rect x="0" y="0" width="900" height="600" fill="#888277"></rect><path d="M0 368L21.5 380.7C43 393.3 86 418.7 128.8 429.2C171.7 439.7 214.3 435.3 257.2 435.2C300 435 343 439 385.8 430.3C428.7 421.7 471.3 400.3 514.2 390.7C557 381 600 383 642.8 393.7C685.7 404.3 728.3 423.7 771.2 432C814 440.3 857 437.7 878.5 436.3L900 435L900 601L878.5 601C857 601 814 601 771.2 601C728.3 601 685.7 601 642.8 601C600 601 557 601 514.2 601C471.3 601 428.7 601 385.8 601C343 601 300 601 257.2 601C214.3 601 171.7 601 128.8 601C86 601 43 601 21.5 601L0 601Z" fill="#fa7268"></path><path d="M0 474L21.5 468.8C43 463.7 86 453.3 128.8 444.3C171.7 435.3 214.3 427.7 257.2 432.3C300 437 343 454 385.8 460.3C428.7 466.7 471.3 462.3 514.2 450.5C557 438.7 600 419.3 642.8 409.8C685.7 400.3 728.3 400.7 771.2 406C814 411.3 857 421.7 878.5 426.8L900 432L900 601L878.5 601C857 601 814 601 771.2 601C728.3 601 685.7 601 642.8 601C600 601 557 601 514.2 601C471.3 601 428.7 601 385.8 601C343 601 300 601 257.2 601C214.3 601 171.7 601 128.8 601C86 601 43 601 21.5 601L0 601Z" fill="#ef5f67"></path><path d="M0 489L21.5 486.8C43 484.7 86 480.3 128.8 479.8C171.7 479.3 214.3 482.7 257.2 484.8C300 487 343 488 385.8 486.3C428.7 484.7 471.3 480.3 514.2 482.5C557 484.7 600 493.3 642.8 498C685.7 502.7 728.3 503.3 771.2 494.8C814 486.3 857 468.7 878.5 459.8L900 451L900 601L878.5 601C857 601 814 601 771.2 601C728.3 601 685.7 601 642.8 601C600 601 557 601 514.2 601C471.3 601 428.7 601 385.8 601C343 601 300 601 257.2 601C214.3 601 171.7 601 128.8 601C86 601 43 601 21.5 601L0 601Z" fill="#e34c67"></path><path d="M0 512L21.5 509.3C43 506.7 86 501.3 128.8 505.8C171.7 510.3 214.3 524.7 257.2 528.2C300 531.7 343 524.3 385.8 515C428.7 505.7 471.3 494.3 514.2 497.3C557 500.3 600 517.7 642.8 525.3C685.7 533 728.3 531 771.2 531.3C814 531.7 857 534.3 878.5 535.7L900 537L900 601L878.5 601C857 601 814 601 771.2 601C728.3 601 685.7 601 642.8 601C600 601 557 601 514.2 601C471.3 601 428.7 601 385.8 601C343 601 300 601 257.2 601C214.3 601 171.7 601 128.8 601C86 601 43 601 21.5 601L0 601Z" fill="#d53867"></path><path d="M0 564L21.5 558.7C43 553.3 86 542.7 128.8 543.8C171.7 545 214.3 558 257.2 558C300 558 343 545 385.8 545.5C428.7 546 471.3 560 514.2 564.5C557 569 600 564 642.8 557.8C685.7 551.7 728.3 544.3 771.2 544C814 543.7 857 550.3 878.5 553.7L900 557L900 601L878.5 601C857 601 814 601 771.2 601C728.3 601 685.7 601 642.8 601C600 601 557 601 514.2 601C471.3 601 428.7 601 385.8 601C343 601 300 601 257.2 601C214.3 601 171.7 601 128.8 601C86 601 43 601 21.5 601L0 601Z" fill="#c62368"></path></svg>