<svg id="visual" viewBox="0 0 900 600" width="900" height="600" xmlns="http://www.w3.org/2000/svg" xmlns:xlink="http://www.w3.org/1999/xlink" version="1.1"><g stroke-width="9" stroke-linejoin="bevel"><path d="M434 335L406 435L463 425Z" fill="#c3d8e3" stroke="#001122"></path><path d="M368 525L539 476L463 425Z" fill="#94a9b8" stroke="#001122"></path><path d="M584 283L510 261L434 335Z" fill="#b1c6d2" stroke="#001122"></path><path d="M270 512L368 525L406 435Z" fill="#c9dee8" stroke="#001122"></path><path d="M406 435L368 525L463 425Z" fill="#bdd2dd" stroke="#001122"></path><path d="M584 283L434 335L463 425Z" fill="#abc0cd" stroke="#001122"></path><path d="M260 328L266 361L434 335Z" fill="#a5bac8" stroke="#001122"></path><path d="M434 335L266 361L406 435Z" fill="#b1c6d2" stroke="#001122"></path><path d="M361 182L260 328L434 335Z" fill="#bdd2dd" stroke="#001122"></path><path d="M510 261L498 221L434 335Z" fill="#c9dee8" stroke="#001122"></path><path d="M631 381L584 283L463 425Z" fill="#99afbd" stroke="#001122"></path><path d="M510 261L590 190L498 221Z" fill="#b1c6d2" stroke="#001122"></path><path d="M239 337L237 389L266 361Z" fill="#94a9b8" stroke="#001122"></path><path d="M266 361L270 512L406 435Z" fill="#99afbd" stroke="#001122"></path><path d="M237 221L239 337L260 328Z" fill="#c9dee8" stroke="#001122"></path><path d="M260 328L239 337L266 361Z" fill="#9fb4c3" stroke="#001122"></path><path d="M237 389L270 512L266 361Z" fill="#c3d8e3" stroke="#001122"></path><path d="M539 476L631 381L463 425Z" fill="#94a9b8" stroke="#001122"></path><path d="M263 600L405 600L368 525Z" fill="#abc0cd" stroke="#001122"></path><path d="M368 525L405 600L539 476Z" fill="#bdd2dd" stroke="#001122"></path><path d="M498 221L361 182L434 335Z" fill="#99afbd" stroke="#001122"></path><path d="M361 182L262 231L260 328Z" fill="#c9dee8" stroke="#001122"></path><path d="M237 389L237 517L270 512Z" fill="#9fb4c3" stroke="#001122"></path><path d="M270 512L263 600L368 525Z" fill="#c9dee8" stroke="#001122"></path><path d="M537 600L628 505L539 476Z" fill="#8ea3b3" stroke="#001122"></path><path d="M539 476L628 505L631 381Z" fill="#99afbd" stroke="#001122"></path><path d="M405 600L537 600L539 476Z" fill="#c3d8e3" stroke="#001122"></path><path d="M668 464L679 380L631 381Z" fill="#a5bac8" stroke="#001122"></path><path d="M631 381L702 292L584 283Z" fill="#9fb4c3" stroke="#001122"></path><path d="M217 95L237 221L262 231Z" fill="#bdd2dd" stroke="#001122"></path><path d="M262 231L237 221L260 328Z" fill="#8ea3b3" stroke="#001122"></path><path d="M239 337L132 322L237 389Z" fill="#c3d8e3" stroke="#001122"></path><path d="M712 600L668 464L628 505Z" fill="#b7ccd8" stroke="#001122"></path><path d="M628 505L668 464L631 381Z" fill="#9fb4c3" stroke="#001122"></path><path d="M702 292L590 190L584 283Z" fill="#a5bac8" stroke="#001122"></path><path d="M584 283L590 190L510 261Z" fill="#bdd2dd" stroke="#001122"></path><path d="M498 221L378 110L361 182Z" fill="#abc0cd" stroke="#001122"></path><path d="M237 517L263 600L270 512Z" fill="#8ea3b3" stroke="#001122"></path><path d="M504 101L378 110L498 221Z" fill="#a5bac8" stroke="#001122"></path><path d="M361 182L217 95L262 231Z" fill="#b7ccd8" stroke="#001122"></path><path d="M537 600L621 600L628 505Z" fill="#b1c6d2" stroke="#001122"></path><path d="M237 517L231 600L263 600Z" fill="#abc0cd" stroke="#001122"></path><path d="M109 600L231 600L237 517Z" fill="#99afbd" stroke="#001122"></path><path d="M107 486L237 517L237 389Z" fill="#abc0cd" stroke="#001122"></path><path d="M679 380L702 292L631 381Z" fill="#8ea3b3" stroke="#001122"></path><path d="M764 394L702 292L679 380Z" fill="#a5bac8" stroke="#001122"></path><path d="M618 60L504 101L590 190Z" fill="#c3d8e3" stroke="#001122"></path><path d="M590 190L504 101L498 221Z" fill="#b7ccd8" stroke="#001122"></path><path d="M237 221L132 322L239 337Z" fill="#c3d8e3" stroke="#001122"></path><path d="M132 322L100 375L237 389Z" fill="#a5bac8" stroke="#001122"></path><path d="M100 375L107 486L237 389Z" fill="#bdd2dd" stroke="#001122"></path><path d="M831 505L764 394L668 464Z" fill="#abc0cd" stroke="#001122"></path><path d="M668 464L764 394L679 380Z" fill="#bdd2dd" stroke="#001122"></path><path d="M621 600L712 600L628 505Z" fill="#9fb4c3" stroke="#001122"></path><path d="M268 63L217 95L361 182Z" fill="#b1c6d2" stroke="#001122"></path><path d="M237 221L63 234L132 322Z" fill="#a5bac8" stroke="#001122"></path><path d="M132 322L0 279L100 375Z" fill="#9fb4c3" stroke="#001122"></path><path d="M268 63L361 182L378 110Z" fill="#b7ccd8" stroke="#001122"></path><path d="M362 0L268 63L378 110Z" fill="#bdd2dd" stroke="#001122"></path><path d="M769 235L722 172L702 292Z" fill="#abc0cd" stroke="#001122"></path><path d="M702 292L722 172L590 190Z" fill="#b1c6d2" stroke="#001122"></path><path d="M811 271L769 235L702 292Z" fill="#a5bac8" stroke="#001122"></path><path d="M663 72L618 60L590 190Z" fill="#8ea3b3" stroke="#001122"></path><path d="M504 101L362 0L378 110Z" fill="#8ea3b3" stroke="#001122"></path><path d="M0 513L109 600L107 486Z" fill="#94a9b8" stroke="#001122"></path><path d="M107 486L109 600L237 517Z" fill="#bdd2dd" stroke="#001122"></path><path d="M534 0L362 0L504 101Z" fill="#9fb4c3" stroke="#001122"></path><path d="M268 63L230 0L217 95Z" fill="#bdd2dd" stroke="#001122"></path><path d="M722 172L663 72L590 190Z" fill="#b1c6d2" stroke="#001122"></path><path d="M789 76L663 72L722 172Z" fill="#a5bac8" stroke="#001122"></path><path d="M106 82L63 234L237 221Z" fill="#9fb4c3" stroke="#001122"></path><path d="M100 375L0 378L107 486Z" fill="#94a9b8" stroke="#001122"></path><path d="M764 394L811 271L702 292Z" fill="#b1c6d2" stroke="#001122"></path><path d="M769 235L789 76L722 172Z" fill="#b1c6d2" stroke="#001122"></path><path d="M900 382L811 271L764 394Z" fill="#bdd2dd" stroke="#001122"></path><path d="M613 0L534 0L618 60Z" fill="#c9dee8" stroke="#001122"></path><path d="M618 60L534 0L504 101Z" fill="#94a9b8" stroke="#001122"></path><path d="M712 600L831 505L668 464Z" fill="#c3d8e3" stroke="#001122"></path><path d="M362 0L276 0L268 63Z" fill="#b1c6d2" stroke="#001122"></path><path d="M217 95L106 82L237 221Z" fill="#99afbd" stroke="#001122"></path><path d="M777 600L831 505L712 600Z" fill="#a5bac8" stroke="#001122"></path><path d="M0 279L0 378L100 375Z" fill="#8ea3b3" stroke="#001122"></path><path d="M663 72L613 0L618 60Z" fill="#c3d8e3" stroke="#001122"></path><path d="M733 0L613 0L663 72Z" fill="#b7ccd8" stroke="#001122"></path><path d="M276 0L230 0L268 63Z" fill="#bdd2dd" stroke="#001122"></path><path d="M0 221L0 279L63 234Z" fill="#94a9b8" stroke="#001122"></path><path d="M63 234L0 279L132 322Z" fill="#8ea3b3" stroke="#001122"></path><path d="M131 0L106 82L217 95Z" fill="#c9dee8" stroke="#001122"></path><path d="M0 378L0 513L107 486Z" fill="#8ea3b3" stroke="#001122"></path><path d="M0 122L0 221L63 234Z" fill="#99afbd" stroke="#001122"></path><path d="M831 505L900 382L764 394Z" fill="#b1c6d2" stroke="#001122"></path><path d="M900 124L789 76L769 235Z" fill="#94a9b8" stroke="#001122"></path><path d="M0 513L0 600L109 600Z" fill="#99afbd" stroke="#001122"></path><path d="M900 236L769 235L811 271Z" fill="#abc0cd" stroke="#001122"></path><path d="M900 382L900 300L811 271Z" fill="#abc0cd" stroke="#001122"></path><path d="M230 0L131 0L217 95Z" fill="#9fb4c3" stroke="#001122"></path><path d="M106 82L0 122L63 234Z" fill="#abc0cd" stroke="#001122"></path><path d="M831 505L900 509L900 382Z" fill="#a5bac8" stroke="#001122"></path><path d="M900 600L900 509L831 505Z" fill="#a5bac8" stroke="#001122"></path><path d="M789 76L733 0L663 72Z" fill="#b7ccd8" stroke="#001122"></path><path d="M900 300L900 236L811 271Z" fill="#b7ccd8" stroke="#001122"></path><path d="M0 0L0 122L106 82Z" fill="#94a9b8" stroke="#001122"></path><path d="M900 0L763 0L789 76Z" fill="#8ea3b3" stroke="#001122"></path><path d="M789 76L763 0L733 0Z" fill="#9fb4c3" stroke="#001122"></path><path d="M777 600L900 600L831 505Z" fill="#c9dee8" stroke="#001122"></path><path d="M900 236L900 124L769 235Z" fill="#b7ccd8" stroke="#001122"></path><path d="M131 0L0 0L106 82Z" fill="#b1c6d2" stroke="#001122"></path><path d="M900 124L900 0L789 76Z" fill="#c3d8e3" stroke="#001122"></path></g></svg>