<svg id="visual" viewBox="0 0 900 600" width="900" height="600" xmlns="http://www.w3.org/2000/svg" xmlns:xlink="http://www.w3.org/1999/xlink" version="1.1"><path d="M0 115L13.7 111C27.3 107 54.7 99 82 99C109.3 99 136.7 107 163.8 109C191 111 218 107 245.2 98C272.3 89 299.7 75 327 81C354.3 87 381.7 113 409 114C436.3 115 463.7 91 491 94C518.3 97 545.7 127 573 126C600.3 125 627.7 93 654.8 78C682 63 709 65 736.2 79C763.3 93 790.7 119 818 118C845.3 117 872.7 89 886.3 75L900 61L900 0L886.3 0C872.7 0 845.3 0 818 0C790.7 0 763.3 0 736.2 0C709 0 682 0 654.8 0C627.7 0 600.3 0 573 0C545.7 0 518.3 0 491 0C463.7 0 436.3 0 409 0C381.7 0 354.3 0 327 0C299.7 0 272.3 0 245.2 0C218 0 191 0 163.8 0C136.7 0 109.3 0 82 0C54.7 0 27.3 0 13.7 0L0 0Z" fill="#6198ff"></path><path d="M0 181L13.7 179C27.3 177 54.7 173 82 177C109.3 181 136.7 193 163.8 196C191 199 218 193 245.2 181C272.3 169 299.7 151 327 156C354.3 161 381.7 189 409 186C436.3 183 463.7 149 491 149C518.3 149 545.7 183 573 189C600.3 195 627.7 173 654.8 166C682 159 709 167 736.2 176C763.3 185 790.7 195 818 185C845.3 175 872.7 145 886.3 130L900 115L900 59L886.3 73C872.7 87 845.3 115 818 116C790.7 117 763.3 91 736.2 77C709 63 682 61 654.8 76C627.7 91 600.3 123 573 124C545.7 125 518.3 95 491 92C463.7 89 436.3 113 409 112C381.7 111 354.3 85 327 79C299.7 73 272.3 87 245.2 96C218 105 191 109 163.8 107C136.7 105 109.3 97 82 97C54.7 97 27.3 105 13.7 109L0 113Z" fill="#3c80ff"></path><path d="M0 361L13.7 373C27.3 385 54.7 409 82 397C109.3 385 136.7 337 163.8 310C191 283 218 277 245.2 291C272.3 305 299.7 339 327 357C354.3 375 381.7 377 409 387C436.3 397 463.7 415 491 406C518.3 397 545.7 361 573 359C600.3 357 627.7 389 654.8 386C682 383 709 345 736.2 340C763.3 335 790.7 363 818 370C845.3 377 872.7 363 886.3 356L900 349L900 113L886.3 128C872.7 143 845.3 173 818 183C790.7 193 763.3 183 736.2 174C709 165 682 157 654.8 164C627.7 171 600.3 193 573 187C545.7 181 518.3 147 491 147C463.7 147 436.3 181 409 184C381.7 187 354.3 159 327 154C299.7 149 272.3 167 245.2 179C218 191 191 197 163.8 194C136.7 191 109.3 179 82 175C54.7 171 27.3 175 13.7 177L0 179Z" fill="#0066ff"></path><path d="M0 433L13.7 443C27.3 453 54.7 473 82 464C109.3 455 136.7 417 163.8 393C191 369 218 359 245.2 372C272.3 385 299.7 421 327 432C354.3 443 381.7 429 409 433C436.3 437 463.7 459 491 450C518.3 441 545.7 401 573 400C600.3 399 627.7 437 654.8 438C682 439 709 403 736.2 395C763.3 387 790.7 407 818 413C845.3 419 872.7 411 886.3 407L900 403L900 347L886.3 354C872.7 361 845.3 375 818 368C790.7 361 763.3 333 736.2 338C709 343 682 381 654.8 384C627.7 387 600.3 355 573 357C545.7 359 518.3 395 491 404C463.7 413 436.3 395 409 385C381.7 375 354.3 373 327 355C299.7 337 272.3 303 245.2 289C218 275 191 281 163.8 308C136.7 335 109.3 383 82 395C54.7 407 27.3 383 13.7 371L0 359Z" fill="#0059dd"></path><path d="M0 601L13.7 601C27.3 601 54.7 601 82 601C109.3 601 136.7 601 163.8 601C191 601 218 601 245.2 601C272.3 601 299.7 601 327 601C354.3 601 381.7 601 409 601C436.3 601 463.7 601 491 601C518.3 601 545.7 601 573 601C600.3 601 627.7 601 654.8 601C682 601 709 601 736.2 601C763.3 601 790.7 601 818 601C845.3 601 872.7 601 886.3 601L900 601L900 401L886.3 405C872.7 409 845.3 417 818 411C790.7 405 763.3 385 736.2 393C709 401 682 437 654.8 436C627.7 435 600.3 397 573 398C545.7 399 518.3 439 491 448C463.7 457 436.3 435 409 431C381.7 427 354.3 441 327 430C299.7 419 272.3 383 245.2 370C218 357 191 367 163.8 391C136.7 415 109.3 453 82 462C54.7 471 27.3 451 13.7 441L0 431Z" fill="#004cbb"></path></svg>